<?xml version="1.0" encoding="UTF-8"?>
<svg width="1200pt" height="1200pt" version="1.1" viewBox="0 0 1200 1200" xmlns="http://www.w3.org/2000/svg">
 <path d="m599.7 71.484c-71.512 0-129.67 58.164-129.67 129.67 0.042968 71.957 58.18 129.67 129.67 129.67 71.957 0 130.28-57.711 130.28-129.67 0-71.512-58.32-129.67-130.28-129.67zm-387.29 51.328c-71.512 0-129.67 58.156-129.67 129.67 0.035156 71.957 58.18 129.67 129.67 129.67 71.957 0 130.28-57.715 130.28-129.67 0-71.512-58.32-129.67-130.28-129.67zm774.58 0c-71.512 0-129.67 58.156-129.67 129.67 0.042969 71.957 58.18 129.67 129.67 129.67 71.957 0 130.28-57.715 130.28-129.67 0-71.512-58.32-129.67-130.28-129.67zm-386.99 246.8c-84.602 0-152.71 78.504-152.71 176.02v86.547c48.625-4.5469 99.785-7.0195 152.71-7.0195 52.93 0 104.08 2.4727 152.7 7.0195v-86.547c0-97.516-68.105-176.02-152.71-176.02zm-387.29 51.32c-84.605 0.003906-152.71 78.516-152.71 176.03v159.2c4.8398-4.7617 10.102-9.3672 15.727-13.805 30.613-24.129 73.004-44.656 124.69-61.887 47.742-15.914 103.54-28.875 165-38.27v-45.238c0-97.516-68.105-176.03-152.71-176.03zm774.59 0c-84.602 0-152.71 78.512-152.71 176.03v45.238c61.461 9.3945 117.26 22.355 165 38.27 51.684 17.227 94.082 37.758 124.7 61.887 5.6289 4.4336 10.879 9.0391 15.719 13.805v-159.2c0-97.516-68.105-176.03-152.71-176.03zm-387.29 238.91c-152.34 0-290.27 20.746-388.62 53.531-49.176 16.391-88.398 35.891-114.19 56.219-25.789 20.328-37.191 40.078-37.191 58.699 0 18.621 11.402 38.371 37.191 58.695 25.789 20.324 65.016 39.828 114.19 56.219 98.348 32.781 236.28 53.527 388.62 53.527s290.27-20.746 388.61-53.527c49.176-16.391 88.398-35.895 114.19-56.219 25.789-20.324 37.191-40.074 37.191-58.695 0-18.621-11.402-38.371-37.191-58.695-25.793-20.324-65.016-39.824-114.19-56.219-98.348-32.781-236.27-53.531-388.61-53.531zm-182.78 46.203h365.54l133.9 196.48 4.3633 6.3945h-642.06zm64.738 4.2734-5.9258 13.684h-0.007812 73.168l2.4297-13.688h-69.672zm83.195 0-1.7461 13.691h73.168l-1.7461-13.691zm83.195 0 2.4297 13.691h73.172l-5.9336-13.691zm-232.25 18.559-12.047 19.07-3.625 5.7305-2 3.168h47.516l4.0898-8.457 0.21094-0.44531 2.4648-5.1016 6.7539-13.969h-43.363zm57.797 0-53.285 123h358.73l-53.285-123zm266.61 0 6.7461 13.969 2.4648 5.1016 2.7617 5.7305 1.5312 3.168h47.516l-2.0039-3.168-3.6172-5.7305-12.051-19.066h-43.348zm-140.52 15.816 96.668 34.949-96.668 43.938-96.676-43.938zm-205.39 18.215-0.90625 1.4297-4.0156 6.3594-3.5156 5.5664-4.3203 6.8359-3.7852 5.9922-4.6602 7.3711-1.0977 1.7344h53.672l0.83984-1.7344 3.5625-7.3711 2.8906-5.9922 5.9961-12.402 3.0742-6.3594 0.69141-1.4297zm362.34 0 0.69141 1.4297 3.0664 6.3594 2.6875 5.5664 3.2969 6.8359 2.8906 5.9922 3.5625 7.3711 0.83984 1.7344h53.672l-5.75-9.1016-3.7852-5.9922-4.3203-6.8359-7.5312-11.93-0.90625-1.4297zm-389.54 43.051-2.7305 4.3086-5.2344 8.2969-5.0469 7.9844-16.004 25.324h61.672l12.234-25.324 3.8555-7.9844 0.32031-0.66016 5.7656-11.949h-54.824zm410.33 0 2.0781 4.3086 4.0078 8.2969 3.8555 7.9844 12.234 25.324h61.672l-16.004-25.324-5.0469-7.9844-5.2422-8.2969-2.7227-4.3086zm-361.57 56.191-14.793 34.137h117.23l6.0625-34.137h21.07l-4.3672 34.137h117.23l-4.3633-34.137h21.066l6.0625 34.137h117.24l-14.793-34.145h-367.64zm-356.16 38.27v59.652c0 18.621 11.402 38.371 37.191 58.695 25.789 20.324 65.016 39.828 114.19 56.219 98.348 32.785 236.28 53.531 388.62 53.531s290.27-20.746 388.61-53.531c49.176-16.391 88.398-35.891 114.19-56.219 25.789-20.324 37.191-40.074 37.191-58.695v-59.652c-4.8398 4.7656-10.094 9.3711-15.719 13.805-30.613 24.129-73.012 44.66-124.7 61.887-103.37 34.457-244.11 55.305-399.58 55.305s-296.22-20.848-399.59-55.305c-51.684-17.227-94.074-37.762-124.69-61.887-5.6289-4.4375-10.891-9.043-15.73-13.805z"/>
</svg>
