<?xml version="1.0" encoding="UTF-8"?>
<svg width="1200pt" height="1200pt" version="1.1" viewBox="0 0 1200 1200" xmlns="http://www.w3.org/2000/svg">
 <g>
  <path d="m48 901.22c0 13.68 11.137 24.84 24.84 24.84h1054.3c13.68 0 24.84-11.16 24.84-24.84v-482.78h-1104zm868.51-343.54h67.176c13.273 0 24 10.754 24 24s-10.727 24-24 24h-67.176c-13.273 0-24-10.754-24-24s10.727-24 24-24zm91.152 109.49c0 13.273-10.727 24-24 24h-252.38c-13.273 0-24-10.727-24-24 0-13.273 10.727-24 24-24h252.41c13.25 0 23.977 10.727 23.977 24zm-595.95-109.49h407.09c13.273 0 24 10.754 24 24s-10.727 24-24 24h-407.09c-13.246 0-24-10.754-24-24s10.754-24 24-24zm0 85.488h219.79c13.273 0 24 10.727 24 24 0 13.273-10.727 24-24 24h-219.79c-13.246 0-24-10.727-24-24 0-13.273 10.754-24 24-24zm0 99.695h571.95c13.273 0 24 10.727 24 24 0 13.273-10.727 24-24 24h-571.95c-13.246 0-24-10.727-24-24 0-13.27 10.754-24 24-24zm-211.32-124.94c-9.9102-8.832-10.777-24-1.9688-33.887 8.832-9.8867 24-10.754 33.887-1.9688l93.695 83.449c0.35938 0.33594 0.50391 0.76953 0.83984 1.1289 0.33594 0.35938 0.79297 0.48047 1.1289 0.83984 0.79297 0.88672 1.0781 1.9688 1.7031 2.9297 0.88672 1.3672 1.8008 2.6172 2.3984 4.1055 0.57422 1.4648 0.83984 2.9297 1.1289 4.4414 0.28906 1.5117 0.60156 2.9531 0.60156 4.5117 0 1.5586-0.3125 2.9766-0.60156 4.5117-0.28906 1.5352-0.52734 2.9766-1.1289 4.4141-0.60156 1.5117-1.5117 2.7617-2.3984 4.1289-0.625 0.96094-0.9375 2.0391-1.7031 2.9297-0.3125 0.35938-0.74219 0.48047-1.0781 0.76953-0.35938 0.38281-0.50391 0.83984-0.88672 1.1992l-93.695 83.367c-4.5586 4.0781-10.273 6.0703-15.961 6.0703-6.6016 0-13.199-2.7109-17.953-8.0391-8.8047-9.8867-7.918-25.078 1.9922-33.887l73.559-65.496z"/>
  <path d="m1127.2 273.94h-1054.3c-13.703 0-24.84 11.133-24.84 24.84v71.664h1104v-71.664c0-13.707-11.16-24.84-24.84-24.84zm-993.41 73.246h-30.363c-13.246 0-24-10.754-24-24s10.754-24 24-24h30.359c13.246 0 24 10.754 24 24 0.003906 13.25-10.75 24-23.996 24zm93.719 0h-30.383c-13.246 0-24-10.754-24-24s10.754-24 24-24h30.359c13.246 0 24 10.754 24 24 0 13.25-10.73 24-23.977 24zm93.695 0h-30.359c-13.246 0-24-10.754-24-24s10.754-24 24-24h30.359c13.246 0 24 10.754 24 24 0 13.25-10.754 24-24 24z"/>
 </g>
</svg>
