<?xml version="1.0" encoding="UTF-8"?>
<svg width="1200pt" height="1200pt" version="1.1" viewBox="0 0 1200 1200" xmlns="http://www.w3.org/2000/svg">
 <g>
  <path d="m37.094 811.09c0 0.16797 0.15625 0.26562 0.17969 0.43359 0.058593 0.38281 0.21484 0.67188 0.42187 1.0078 0.21484 0.34766 0.38281 0.625 0.70703 0.85156 0.13281 0.10938 0.15625 0.27734 0.30078 0.35938l601.64 317.34c0.44531 0.23828 0.9375 0.34766 1.4023 0.34766 0.58984 0 1.1406-0.20312 1.6211-0.51562 0.046875-0.023438 0.097656-0.023438 0.12109-0.046875l518.18-368.27c0.070313-0.058593 0.070313-0.16797 0.14453-0.23828 0.28906-0.25391 0.39453-0.58984 0.58984-0.9375 0.19141-0.34766 0.39453-0.63672 0.42188-1.0312 0.011719-0.097656 0.10938-0.15625 0.10938-0.25391l-0.007812-353.04c0-0.16797-0.15625-0.26562-0.17969-0.43359-0.046875-0.3125-0.13281-0.55078-0.27734-0.83984-0.070312-0.15625 0-0.32422-0.097656-0.46875-0.058594-0.070313-0.16797-0.070313-0.22656-0.13281-0.15625-0.19141-0.33594-0.28906-0.52734-0.43359-0.14453-0.097657-0.15625-0.27734-0.30078-0.35938l-601.39-317.61c-0.15625-0.085937-0.32422 0-0.49219-0.035156-0.38281-0.13281-0.70703-0.13281-1.1055-0.10938-0.39453 0.023438-0.70703 0.070313-1.0547 0.25391-0.15625 0.070312-0.33594 0-0.49219 0.10937l-518.44 368.54c-0.070312 0.046875-0.070312 0.15625-0.13281 0.22656-0.19141 0.15625-0.27734 0.32422-0.42188 0.52734-0.097656 0.13281-0.27734 0.14453-0.35938 0.28906-0.085938 0.15625 0 0.32422-0.046875 0.49219-0.070313 0.23828-0.17969 0.42188-0.20312 0.66016 0 0.097656-0.097656 0.15625-0.097656 0.25391zm521.66-718.11 68.52 36.191h-0.046875c-0.097657-0.023438-0.14453-0.12109-0.23828-0.14453l-31.223-5.2578c-0.085937-0.011719-0.16797 0.058594-0.25391 0.058594-0.097656 0-0.15625-0.097657-0.25391-0.097657h-0.023438l-32.555 0.25391c-0.097656 0-0.14453 0.085937-0.23828 0.097656-0.085937 0-0.15625-0.070313-0.23828-0.058594l-31.234 5.2578c-0.097656 0.011719-0.13281 0.12109-0.22656 0.14453-0.085938 0.011718-0.16797-0.046875-0.25391-0.011719l-28.094 9.7188c-0.10938 0.035156-0.14453 0.16797-0.25391 0.22656-0.10938 0.046874-0.22656-0.011719-0.32422 0.046874l-22.836 13.906c-0.13281 0.085938-0.14453 0.25391-0.25391 0.34766-0.10938 0.097656-0.27734 0.070312-0.38281 0.17969l-16.008 17.328c-0.12109 0.13281-0.085938 0.32422-0.17969 0.48047-0.097656 0.14453-0.28906 0.17969-0.37109 0.34766l-8.3984 19.164c-0.097656 0.21484 0.023437 0.43359-0.011719 0.64844-0.046875 0.21484-0.23828 0.35938-0.23828 0.60156l0.25391 19.934-0.25391 38.809c0 0.011719 0.011719 0.011719 0.011719 0.023438 0 0.011718-0.011719 0.011718-0.011719 0.023437l0.25391 19.957c0 0.21484 0.19141 0.35938 0.23828 0.5625 0.035157 0.20313-0.070312 0.40625 0.011719 0.60156l8.3984 19.164c0.097656 0.22656 0.3125 0.33594 0.45703 0.52734 0.070312 0.097657 0.035156 0.23828 0.13281 0.33594l16.273 17.062c0.097656 0.10938 0.25391 0.070312 0.35938 0.15625 0.10938 0.097656 0.12109 0.25391 0.25391 0.33594l22.836 13.906c0.12109 0.070313 0.25391 0.046875 0.38281 0.10938 0.070313 0.035157 0.097657 0.13281 0.17969 0.16797l28.344 9.9727c0.13281 0.046875 0.26562 0.035156 0.39453 0.070313 0.035156 0 0.058594 0.046875 0.097656 0.058593l31.234 5.2578c0.16797 0.023437 0.32422 0.035156 0.50391 0.035156h32.293c0.16797 0 0.32422-0.011719 0.50391-0.035156l31.234-5.2578c0.035156 0 0.046874-0.046874 0.097656-0.058593 0.14453-0.023438 0.27734-0.023438 0.42188-0.070313l27.816-9.9727c0.097656-0.023438 0.10938-0.13281 0.19141-0.16797 0.12109-0.046875 0.25391-0.035156 0.37109-0.10938l23.102-14.172c0.13281-0.085937 0.14453-0.25391 0.25391-0.35938 0.10938-0.085937 0.26562-0.046875 0.37109-0.16797l16.008-17.328c0.097656-0.097656 0.058594-0.25391 0.13281-0.34766 0.14453-0.17969 0.32422-0.28906 0.42188-0.50391l8.1602-19.164c0.085937-0.20313-0.046875-0.39453 0-0.61328 0.046875-0.20312 0.23828-0.33594 0.23828-0.5625v-78.746c0-0.22656-0.19141-0.37109-0.23828-0.58984-0.046875-0.21484 0.070312-0.42188-0.023438-0.63672l-8.3984-18.898c-0.085938-0.17969-0.27734-0.21484-0.38281-0.35937-0.097656-0.15625-0.058594-0.34766-0.19141-0.49219l-10.512-11.016 241.67 127.63-30.719-4.8945c-0.097656-0.011718-0.16797 0.058594-0.25391 0.058594-0.085938 0-0.14453-0.097656-0.22656-0.097656l-32.551 0.003906c-0.097656 0-0.15625 0.097656-0.25391 0.097656s-0.16797-0.070312-0.25391-0.058594l-31.223 5.2578c-0.10938 0.011719-0.14453 0.12109-0.25391 0.14453-0.097656 0.023438-0.17969-0.046875-0.26562-0.011718l-27.84 9.9727c-0.10938 0.035156-0.13281 0.16797-0.23828 0.21484-0.097656 0.046874-0.21484 0-0.30078 0.046874l-22.836 13.906c-0.13281 0.070313-0.13281 0.25391-0.25391 0.33594-0.12109 0.085938-0.27734 0.058594-0.37109 0.16797l-16.262 17.328c-0.14453 0.14453-0.097657 0.34766-0.20313 0.50391-0.10937 0.15625-0.30078 0.20312-0.38281 0.37109l-8.1367 19.164c-0.097656 0.20312 0.023438 0.39453-0.011719 0.61328-0.046874 0.20312-0.23828 0.33594-0.23828 0.5625v78.746c0 0.22656 0.20312 0.35938 0.25391 0.57422 0.035156 0.21484-0.085938 0.42188 0 0.625l8.4102 19.164c0.097656 0.22656 0.30078 0.33594 0.44531 0.52734 0.070313 0.097656 0.035156 0.23828 0.13281 0.33594l16.273 17.062c0.097656 0.10938 0.25391 0.070312 0.35938 0.15625 0.12109 0.097656 0.13281 0.26562 0.25391 0.34766l23.102 13.906c0.12109 0.070312 0.25391 0.046875 0.37109 0.10938 0.070312 0.023437 0.097656 0.12109 0.16797 0.15625l28.105 9.9727c0.13281 0.046875 0.26562 0.046875 0.40625 0.070313 0.046875 0.011718 0.058594 0.058594 0.10938 0.070312l31.246 4.9922c0.15625 0.023437 0.30078 0.035156 0.46875 0.035156h32.555c0.16797 0 0.32422-0.011719 0.49219-0.035156l31.246-5.2578c0.046875 0 0.070312-0.046875 0.10938-0.058593 0.14453-0.023438 0.26562-0.023438 0.40625-0.070313l28.078-9.9727c0.070312-0.023438 0.097656-0.12109 0.16797-0.15625 0.14453-0.046875 0.27734-0.035157 0.39453-0.10938l22.598-13.906c0.13281-0.085938 0.13281-0.25391 0.25391-0.34766 0.10938-0.085938 0.25391-0.046876 0.35938-0.15625l16.262-17.328c0.097656-0.097656 0.058594-0.23828 0.14453-0.34766 0.13281-0.17969 0.32422-0.28906 0.42188-0.50391l8.3867-19.164c0.097656-0.20313-0.023438-0.40625 0.023438-0.625 0.046874-0.21484 0.23828-0.34766 0.23828-0.57422v-58.801l-0.011719-0.011719c0-0.011719 0.011719-0.011719 0.011719-0.023438l-0.25391-19.945c0-0.21484-0.19141-0.35938-0.23828-0.5625s0.070313-0.40625-0.023437-0.60156l-8.3867-19.164c-0.085937-0.17969-0.28906-0.21484-0.39453-0.37109-0.097656-0.15625-0.058594-0.34766-0.19141-0.49219l-9.875-10.355 167.38 88.402-512.7 364.12-3.0469-1.6211c1.1992-1.0664 1.3789-2.8789 0.33594-4.1289-1.0664-1.2734-2.9531-1.4531-4.2344-0.39453l-1.5703 1.3086c-0.097657 0.070312-0.070313 0.19141-0.14453 0.26562l-587.04-309.4zm132.42 81.637 7.9453 17.855v18.695l-7.7031 18.121-15.359 16.633-22.488 13.535-27.289 9.7812-30.742 5.1719-31.789 0.26562-30.719-5.1719-27.816-9.7812-22.223-13.547-15.625-16.379-7.957-18.133-0.23828-18.684 7.9453-18.121 15.371-16.645 22.199-13.523 27.551-9.5273 30.758-5.1719 32.051-0.25391 30.73 5.1719 27.527 9.5156 22.246 13.801zm300.82 158.55 7.957 18.133 0.23828 18.684-7.9062 18.098-15.66 16.656-21.996 13.547-27.469 9.7422-30.793 4.9219-32.051 0.25391-30.73-4.9062-27.516-9.7578-22.512-13.559-15.648-16.656-7.9336-17.855v-18.695l7.7031-18.109 15.613-16.645 22.234-13.535 27.301-9.7812 30.73-5.1719h32.039l30.77 4.9062 27.492 9.7695 22.535 13.57zm-948.9 129.82 595.66 313.93v346.55l-595.66-314.21z"/>
  <path d="m194.3 455.72c0.035156 0.21484-0.070313 0.42188 0.011718 0.63672l8.6641 19.43c0.097656 0.21484 0.28906 0.32422 0.43359 0.50391 0.070313 0.097656 0.035157 0.23828 0.12109 0.32422l16.02 17.062c0.097656 0.10937 0.26562 0.070312 0.37109 0.16797 0.12109 0.097656 0.12109 0.27734 0.26562 0.35938l23.102 13.906c0.12109 0.070313 0.25391 0.046875 0.37109 0.097657 0.070313 0.035156 0.085938 0.12109 0.16797 0.15625l27.816 9.9727c0.14453 0.046875 0.28906 0.046875 0.44531 0.070312 0.046875 0 0.058594 0.058594 0.10938 0.058594l31.5 4.9922c0.15625 0.023437 0.3125 0.035156 0.46875 0.035156h32.281c0.16797 0 0.32422-0.011719 0.50391-0.035156l31.246-5.2578c0.035156 0 0.058594-0.046875 0.097656-0.058594 0.14453-0.023437 0.26562-0.023437 0.40625-0.070312l28.094-9.9727c0.085938-0.023437 0.10938-0.13281 0.19141-0.16797 0.13281-0.058594 0.26562-0.035156 0.39453-0.10938l22.836-14.184c0.13281-0.085937 0.13281-0.25391 0.25391-0.34766 0.10938-0.085938 0.25391-0.046875 0.35938-0.15625l16.008-17.062c0.085938-0.097657 0.046875-0.23828 0.12109-0.33594 0.14453-0.17969 0.34766-0.28906 0.44531-0.50391l8.3984-19.164c0.085937-0.21484-0.023438-0.42187 0.011718-0.625 0.046876-0.21484 0.23828-0.35937 0.23828-0.57422v-78.492c0-0.22656-0.19141-0.37109-0.23828-0.57422-0.035156-0.21484 0.070313-0.43359-0.011718-0.64844l-8.6641-19.414c-0.070312-0.16797-0.27734-0.21484-0.38281-0.35938-0.097657-0.14453-0.046875-0.33594-0.17969-0.46875l-16.02-17.062c-0.097656-0.10937-0.26562-0.085937-0.37109-0.16797-0.12109-0.097656-0.12109-0.25391-0.25391-0.33594l-23.102-14.184c-0.10938-0.058593-0.23828 0-0.33594-0.058593-0.10938-0.046875-0.14453-0.17969-0.25391-0.22656l-28.344-9.7188c-0.085938-0.023437-0.17969 0.035156-0.26562 0.011719-0.097657-0.023437-0.13281-0.13281-0.23828-0.14453l-31.246-4.9805c-0.097656-0.011719-0.15625 0.058594-0.25391 0.058594-0.097657 0-0.14453-0.097657-0.22656-0.097657h-32.027c-0.097656 0-0.15625 0.097657-0.25391 0.097657-0.085937 0-0.16797-0.070313-0.25391-0.058594l-31.234 5.2578c-0.097656 0.011718-0.13281 0.12109-0.22656 0.14453-0.085937 0.011719-0.16797-0.046875-0.25391-0.011719l-28.094 9.707c-0.12109 0.035157-0.15625 0.17969-0.26562 0.23828-0.12109 0.058594-0.25391 0-0.35938 0.058594l-22.836 14.438c-0.12109 0.070313-0.12109 0.22656-0.22656 0.32422-0.10938 0.070313-0.25391 0.046875-0.33594 0.14453l-16.273 17.062c-0.13281 0.14453-0.097656 0.34766-0.19141 0.50391-0.10938 0.15625-0.3125 0.20313-0.39453 0.38281l-8.1367 18.898c-0.085938 0.20313 0.035156 0.40625-0.011719 0.61328-0.046875 0.21484-0.23828 0.34766-0.23828 0.57422v78.758c0.003906 0.22266 0.19922 0.35547 0.24609 0.58203zm13.438-96.562 15.637-16.379 22.262-14.074 27.504-9.5039 30.742-5.1719h31.512l30.793 4.9062 27.758 9.5156 22.488 13.801 15.383 16.379 8.207 18.395v18.168l-7.957 18.371-15.371 16.379-22.246 13.812-27.527 9.7695-30.742 5.1602h-31.777l-31.008-5.1719-27.266-9.5156-22.488-13.789-15.395-16.141-8.1953-18.371v-18.707z"/>
  <path d="m494.89 615.19 8.6641 19.152c0.097656 0.21484 0.28906 0.3125 0.43359 0.49219 0.070313 0.10937 0.035157 0.23828 0.12109 0.32422l16.273 17.328c0.097657 0.10938 0.26563 0.085938 0.38281 0.16797 0.12109 0.10938 0.13281 0.26562 0.26562 0.35938l22.836 13.645c0.12109 0.070313 0.25391 0.058594 0.37109 0.12109 0.085938 0.023438 0.097657 0.12109 0.17969 0.14453l28.344 9.9844c0.13281 0.046875 0.26562 0.035156 0.39453 0.070313 0.035156 0 0.058594 0.046875 0.097656 0.046875l31.246 5.2578c0.16797 0.035156 0.32422 0.046875 0.50391 0.046875h32.281c0.17969 0 0.32422-0.011719 0.50391-0.046875l31.223-5.2578c0.046875 0 0.070312-0.046875 0.12109-0.058594 0.14453-0.035156 0.27734-0.023438 0.42188-0.085938l28.078-10.246c0.085938-0.023438 0.097657-0.12109 0.17969-0.15625 0.12109-0.046875 0.25391-0.035157 0.35938-0.10938l22.836-13.895c0.13281-0.085937 0.13281-0.25391 0.25391-0.34766 0.12109-0.097656 0.27734-0.046875 0.37109-0.16797l16.285-17.316c0.097656-0.097656 0.046875-0.25391 0.13281-0.34766 0.14453-0.19141 0.33594-0.30078 0.43359-0.52734l8.1367-19.176c0.097656-0.20312-0.023438-0.39453 0.011718-0.60156 0.046876-0.21484 0.23828-0.34766 0.23828-0.57422v-78.746c0-0.23828-0.20312-0.38281-0.25391-0.61328-0.046876-0.21484 0.070312-0.43359-0.023438-0.63672l-8.6758-18.887c-0.070313-0.16797-0.25391-0.19141-0.34766-0.33594-0.097656-0.14453-0.058593-0.33594-0.19141-0.48047l-16.262-17.328c-0.10938-0.10938-0.26563-0.085937-0.38281-0.16797-0.10938-0.097656-0.12109-0.26562-0.25391-0.33594l-22.836-13.906c-0.10938-0.058594-0.22656 0-0.3125-0.046875-0.10938-0.046875-0.13281-0.17969-0.23828-0.21484l-28.078-9.9727c-0.10938-0.035156-0.20312 0.035156-0.30078 0.011718-0.10938-0.023437-0.15625-0.13281-0.25391-0.15625l-31.5-4.7266c-0.085938-0.011719-0.14453 0.058594-0.23828 0.046875-0.070312 0-0.13281-0.085937-0.21484-0.085937h-32.309c-0.085938 0-0.14453 0.085937-0.22656 0.097656-0.097656 0-0.16797-0.070313-0.25391-0.058594l-31.234 4.9805c-0.10938 0.011719-0.14453 0.13281-0.25391 0.15625-0.097657 0.023437-0.17969-0.046875-0.27734-0.011719l-28.094 9.9727c-0.10938 0.035156-0.14453 0.16797-0.23828 0.21484-0.10938 0.046875-0.22656 0-0.3125 0.046875l-22.836 13.922c-0.13281 0.070312-0.13281 0.25391-0.25391 0.33594-0.12109 0.097656-0.28906 0.058593-0.39453 0.17969l-16.008 17.316c-0.13281 0.13281-0.085937 0.33594-0.17969 0.49219-0.10938 0.14453-0.28906 0.17969-0.37109 0.34766l-8.3984 19.164c-0.085938 0.21484 0.023437 0.42187-0.011719 0.625-0.046875 0.21484-0.23828 0.35937-0.23828 0.57422v78.758c0 0.23828 0.19141 0.37109 0.25391 0.58984 0.042968 0.20703-0.085938 0.4375 0.019531 0.65234zm13.68-97.488 15.395-16.656 22.211-13.535 27.527-9.7695 30.742-4.9062h31.824l30.984 4.6445 27.504 9.7695 22.234 13.535 15.672 16.68 8.1836 17.844v18.707l-7.6797 18.098-15.66 16.645-22.223 13.547-27.574 9.7812-30.707 5.4102h-31.766l-30.742-5.1719-27.816-9.7812-22.223-13.535-15.637-16.391-8.1953-18.133v-18.672z"/>
 </g>
</svg>
